<svg width="16" height="16" viewBox="0 0 16 16" fill="none" xmlns="http://www.w3.org/2000/svg">
<path d="M11.7639 -0.000945796C9.43056 0.0084292 7.55556 2.17093 7.55556 4.79593V6.99905H1.33333C0.597222 6.99905 0 7.67093 0 8.49905V14.4991C0 15.3272 0.597222 15.9991 1.33333 15.9991H11.1111C11.8472 15.9991 12.4444 15.3272 12.4444 14.4991V8.49905C12.4444 7.67093 11.8472 6.99905 11.1111 6.99905H9.77778V4.77718C9.77778 3.53968 10.6583 2.51155 11.7583 2.49905C12.8694 2.48655 13.7778 3.50218 13.7778 4.74905V7.24905C13.7778 7.66468 14.075 7.99905 14.4444 7.99905H15.3333C15.7028 7.99905 16 7.66468 16 7.24905V4.74905C16 2.12405 14.0972 -0.0103208 11.7639 -0.000945796ZM7.33333 12.2491C7.33333 12.9397 6.83611 13.4991 6.22222 13.4991C5.60833 13.4991 5.11111 12.9397 5.11111 12.2491V10.7491C5.11111 10.0584 5.60833 9.49905 6.22222 9.49905C6.83611 9.49905 7.33333 10.0584 7.33333 10.7491V12.2491Z" fill="#6C83A1"/>
</svg>
