<svg width="20" height="20" viewBox="0 0 20 20" fill="none" xmlns="http://www.w3.org/2000/svg">
<path d="M4.27574 9.53284L9.53277 4.27659L7.80933 2.55315L5.39996 4.96253C5.37122 4.99131 5.3371 5.01415 5.29953 5.02974C5.26196 5.04532 5.22168 5.05334 5.18101 5.05334C5.14034 5.05334 5.10006 5.04532 5.06249 5.02974C5.02492 5.01415 4.9908 4.99131 4.96206 4.96253L4.52417 4.52464C4.40308 4.40354 4.40308 4.20745 4.52417 4.08674L6.93355 1.67737L5.61949 0.362915C5.1355 -0.121069 4.35113 -0.121069 3.86714 0.362915L0.362844 3.86721C-0.12075 4.3512 -0.12114 5.13557 0.362844 5.61956L4.27574 9.53284ZM19.4504 4.97034C20.1832 4.23753 20.1828 3.04963 19.4504 2.31682L17.6828 0.549243C16.95 -0.183569 15.7617 -0.183569 15.0285 0.549243L13.2308 2.34651L17.6527 6.76839L19.4504 4.97034ZM12.3468 3.23089L0.745266 14.8309L0.0124535 19.0278C-0.0863747 19.5938 0.406594 20.0868 0.973001 19.9871L5.17027 19.2512L16.7687 7.65237L12.3468 3.23089ZM19.6371 14.3805L18.323 13.0664L15.9136 15.4758C15.7925 15.5969 15.5964 15.5969 15.4757 15.4758L15.0379 15.0379C14.9171 14.9168 14.9171 14.7207 15.0379 14.6L17.4472 12.1907L15.723 10.4664L10.466 15.7227L14.3804 19.6368C14.8644 20.1207 15.6488 20.1207 16.1328 19.6368L19.6371 16.1328C20.1211 15.6489 20.1211 14.8645 19.6371 14.3805Z" fill="white"/>
</svg>
