<svg width="18" height="18" viewBox="0 0 18 18" fill="none" xmlns="http://www.w3.org/2000/svg">
<path d="M13.7812 18H4.21875C1.89253 18 0 16.1075 0 13.7812V4.21875C0 1.89253 1.89253 0 4.21875 0H13.7812C16.1075 0 18 1.89253 18 4.21875V13.7812C18 16.1075 16.1075 18 13.7812 18ZM4.21875 1.40625C2.66794 1.40625 1.40625 2.66794 1.40625 4.21875V13.7812C1.40625 15.3321 2.66794 16.5938 4.21875 16.5938H13.7812C15.3321 16.5938 16.5938 15.3321 16.5938 13.7812V4.21875C16.5938 2.66794 15.3321 1.40625 13.7812 1.40625H4.21875ZM14.9062 9C14.9062 8.61166 14.5915 8.29688 14.2031 8.29688H9.24609C8.85776 8.29688 8.54297 8.61166 8.54297 9C8.54297 9.38834 8.85776 9.70312 9.24609 9.70312H14.2031C14.5915 9.70312 14.9062 9.38834 14.9062 9ZM12.4453 6.29297C12.4453 5.90463 12.1305 5.58984 11.7422 5.58984H5.16797C4.77963 5.58984 4.46484 5.90463 4.46484 6.29297C4.46484 6.6813 4.77963 6.99609 5.16797 6.99609H11.7422C12.1305 6.99609 12.4453 6.6813 12.4453 6.29297ZM7.41797 3.55078C7.41797 3.16245 7.10318 2.84766 6.71484 2.84766H3.76172C3.37338 2.84766 3.05859 3.16245 3.05859 3.55078C3.05859 3.93912 3.37338 4.25391 3.76172 4.25391H6.71484C7.10318 4.25391 7.41797 3.93912 7.41797 3.55078ZM13.8516 11.7422C13.8516 11.3539 13.5368 11.0391 13.1484 11.0391H7.27734C6.88901 11.0391 6.57422 11.3539 6.57422 11.7422C6.57422 12.1305 6.88901 12.4453 7.27734 12.4453H13.1484C13.5368 12.4453 13.8516 12.1305 13.8516 11.7422ZM14.8008 14.4844C14.8008 14.096 14.486 13.7812 14.0977 13.7812H12.5508C12.1624 13.7812 11.8477 14.096 11.8477 14.4844C11.8477 14.8727 12.1624 15.1875 12.5508 15.1875H14.0977C14.486 15.1875 14.8008 14.8727 14.8008 14.4844Z" fill="#2E3A59"/>
</svg>
