<svg width="18" height="18" viewBox="0 0 18 18" fill="none" xmlns="http://www.w3.org/2000/svg">
<g clip-path="url(#clip0)">
<path d="M13.7322 17.7171C13.4455 17.7171 13.1586 17.6296 12.9068 17.4541L9.13556 14.8273C9.05398 14.7704 8.94439 14.7704 8.86268 14.8273L5.09163 17.4541C4.5798 17.8106 3.92296 17.8042 3.41827 17.4378C2.91304 17.071 2.70334 16.4478 2.88406 15.85L4.21657 11.4409C4.24499 11.3468 4.2119 11.2434 4.13403 11.1834L0.563611 8.42789C0.0667547 8.04446 -0.122897 7.4111 0.0804875 6.81454C0.28346 6.21963 0.818769 5.83511 1.44458 5.83511H5.90104C6.00693 5.83511 6.0955 5.77551 6.12695 5.68336L7.63208 1.26027C7.83478 0.665359 8.37132 0.28125 8.99919 0.28125C9.62706 0.28125 10.1635 0.665359 10.3662 1.25999L11.8714 5.68336C11.9027 5.77565 11.9915 5.83511 12.0973 5.83511H16.5559C17.1815 5.83511 17.7167 6.2195 17.9195 6.81427C18.1229 7.41083 17.9333 8.04391 17.4364 8.4272L13.8643 11.1834C13.7865 11.2435 13.7534 11.347 13.7818 11.4409L13.8988 11.8283C14.0112 12.1999 13.8009 12.5923 13.4292 12.7046C13.0577 12.8168 12.6652 12.6067 12.5529 12.2351L12.4358 11.8478C12.2397 11.1988 12.4685 10.4844 13.0054 10.0702L16.5776 7.31401C16.5935 7.30165 16.5934 7.29863 16.5927 7.28696C16.5912 7.26457 16.5785 7.24617 16.5734 7.24315C16.5734 7.24315 16.5686 7.24123 16.5559 7.24123H12.0973C11.3909 7.24123 10.7652 6.79724 10.5403 6.13641L9.03517 1.71318C9.02885 1.69492 9.02624 1.68723 8.99919 1.68723C8.972 1.68723 8.96939 1.69492 8.96307 1.71346L7.45808 6.13628C7.23314 6.79724 6.60747 7.24123 5.90104 7.24123H1.44458C1.43167 7.24123 1.42686 7.24315 1.42686 7.24315C1.42178 7.24603 1.40915 7.2643 1.4075 7.28682C1.40667 7.29904 1.4064 7.3022 1.4226 7.31483L4.99302 10.0702C5.52984 10.4845 5.75863 11.1988 5.56253 11.8477L4.22989 16.2567C4.22439 16.2751 4.22178 16.2835 4.24431 16.2999C4.266 16.3157 4.27246 16.3111 4.28798 16.3003L8.05903 13.6736C8.6214 13.2819 9.37698 13.2819 9.93921 13.6736L13.7103 16.3004C13.7258 16.3111 13.7322 16.3158 13.7539 16.2999C13.7765 16.2835 13.7738 16.2751 13.7684 16.2567L13.5727 15.6095C13.4603 15.2378 13.6706 14.8454 14.0423 14.7331C14.4138 14.6209 14.8063 14.831 14.9186 15.2027L15.1142 15.85C15.2949 16.4478 15.0852 17.071 14.58 17.4378C14.3237 17.6239 14.028 17.7171 13.7322 17.7171Z" fill="#828899"/>
</g>
<defs>
<clipPath id="clip0">
<rect width="18" height="18" fill="white"/>
</clipPath>
</defs>
</svg>
