<svg xmlns="http://www.w3.org/2000/svg" xmlns:xlink="http://www.w3.org/1999/xlink" viewBox="0 0 16 16"><defs><style>.cls-1{fill:url(#linearGradient);}.cls-2{fill:#fff;}</style><linearGradient id="linearGradient" y1="16" x2="1" y2="16" gradientTransform="matrix(-11.31, -11.31, -11.31, 11.31, 194.68, -167.36)" gradientUnits="userSpaceOnUse"><stop offset="0" stop-color="#2b3180"/><stop offset="0.48" stop-color="#1b6eb0"/><stop offset="1" stop-color="#0aaee3"/></linearGradient></defs><circle class="cls-1" cx="8" cy="8" r="8"/><path class="cls-2" d="M11.46,12.47l-.66-6c-.06-.59-.09-1.28-.09-1.28h0s-.14.68-.32,1.28l-1.78,6H7.42l-1.79-6c-.18-.6-.31-1.28-.31-1.28h0s0,.69-.09,1.28l-.66,6H2.83L4,3.06H6.08l1.64,5.5A11.76,11.76,0,0,1,8,9.77H8s.12-.67.27-1.21l1.63-5.5H12l1.17,9.41Z"/></svg>